<svg width="22" height="22" viewBox="0 0 22 22" fill="none" xmlns="http://www.w3.org/2000/svg">
<path d="M6.54114 10.1665C6.20892 9.80108 5.71058 9.8343 5.47803 10.2662L0.0627661 21.0635C-0.136569 21.4954 0.162434 21.9937 0.627548 21.9937H8.13582C8.36838 21.9937 8.60094 21.8608 8.7006 21.6283C10.3617 18.2728 9.36505 13.1898 6.54114 10.1665Z" fill="url(#paint0_linear_348_25)"/>
<path d="M10.4954 0.332669C7.47211 5.1167 7.67145 10.3991 9.66479 14.3858C11.6581 18.3725 13.1864 21.3957 13.286 21.6283C13.3857 21.8608 13.6183 21.9937 13.8508 21.9937H21.3591C21.8242 21.9937 22.1564 21.4954 21.9239 21.0635C21.9239 21.0635 11.8243 0.864228 11.5585 0.365892C11.3591 -0.0992228 10.7944 -0.132445 10.4954 0.332669Z" fill="#2684FF"/>
<defs>
<linearGradient id="paint0_linear_348_25" x1="9.48848" y1="11.8173" x2="3.7971" y2="21.6751" gradientUnits="userSpaceOnUse">
<stop stop-color="#0052CC"/>
<stop offset="0.9228" stop-color="#2684FF"/>
</linearGradient>
</defs>
</svg>
