<svg width="138" height="139" viewBox="0 0 138 139" fill="none" xmlns="http://www.w3.org/2000/svg">
<path d="M93 25.5L68 50L56.75 38.75L63.5 32L69 37L81 25L69 13L44 38L69 63L100 32L137 69L112.5 93.5L88 69L100 57L106 63L100 69L112.5 81.5L125 69L99.5 43.5L74 69L106 101L69 138L44 113L69 88L81 100L74 107L68 101L56.5 112.5L69 125L94 100L69 75L37.5 106.5L1 70L25 46L49 70L37.5 81.5L30.5 74.5L36 69L24.5 57.5L13 69L37.5 93.5L62 69L31.5 38.5L69 1L93 25.5Z" fill="black"/>
<path d="M56.5 38.5L56.75 38.75M56.75 38.75L68 50L93 25.5L69 1L31.5 38.5L62 69L37.5 93.5L13 69L24.5 57.5L36 69L30.5 74.5L37.5 81.5L49 70L25 46L1 70L37.5 106.5L69 75L94 100L69 125L56.5 112.5L68 101L74 107L81 100L69 88L44 113L69 138L106 101L74 69L99.5 43.5L125 69L112.5 81.5L100 69L106 63L100 57L88 69L112.5 93.5L137 69L100 32L69 63L44 38L69 13L81 25L69 37L63.5 32L56.75 38.75Z" stroke="black"/>
</svg>
